# xmcd
#
# Track frame offsets: 
#        150
#        29746
#        37276
#        50724
#        66338
#        80653
#        103447
#        126296
#        133973
#        152117
#        156151
#        170250
#        181389
#        192507
#        203102
#        212436
#        223136
#        231864
#        240590
#        257285
#        271151
#        286741
#        302623
#
# Disc length: 4264 seconds
#
# Revision: 0
# Processed by: cddbd v1.5.2PL0 Copyright (c) Steve Scherf et al.
# Submitted via: ExactAudioCopy v0.95b3
#
DISCID=6210a617
DTITLE=Jimi Hendrix  - Moonbeams and Fairytales - Disc 22
DYEAR=1900
DGENRE=
TTITLE0=Interview (Tony Hall)
TTITLE1=Radio One
TTITLE2=Wait Until Tomorrow
TTITLE3=Day Tripper
TTITLE4=Spanish Castle Magic
TTITLE5=Hear My Train A'Comin'
TTITLE6=Hear My Train A'Comin'
TTITLE7=Hear My Train A'Comin'
TTITLE8=Interview (See My Music Talking)
TTITLE9=Hear My Train A'Comin'
TTITLE10=Hear My Train A'Comin'
TTITLE11=Crosstown Traffic
TTITLE12=Crosstown Traffic
TTITLE13=Crosstown Traffic
TTITLE14=Dream
TTITLE15=Dream
TTITLE16=Dance
TTITLE17=Sgt Pepper's Lonely Hearts Club Band
TTITLE18=Foxy Lady
TTITLE19=Wild Thing
TTITLE20=Little One
TTITLE21=Little One
TTITLE22=Little One
EXTD=
EXTT0=
EXTT1=
EXTT2=
EXTT3=
EXTT4=
EXTT5=
EXTT6=
EXTT7=
EXTT8=
EXTT9=
EXTT10=
EXTT11=
EXTT12=
EXTT13=
EXTT14=
EXTT15=
EXTT16=
EXTT17=
EXTT18=
EXTT19=
EXTT20=
EXTT21=
EXTT22=
PLAYORDER=
